<svg xmlns="http://www.w3.org/2000/svg" width="512" height="512" fill="none"><rect width="472" height="472" x="20" y="20" fill="#EBDEDE" stroke="#AD0505" stroke-opacity="100%" stroke-width="40" paint-order="stroke" rx="600"/><svg xmlns="http://www.w3.org/2000/svg" width="300" height="300" x="106" y="106" alignment-baseline="middle" style="color:#ad0505" viewBox="0 0 16 16"><path fill="currentColor" fill-rule="evenodd" d="M2.8 2.004a.75.75 0 1 0-.04 1.5 10 10 0 0 1 9.737 9.74.75.75 0 0 0 1.5-.038A11.5 11.5 0 0 0 2.798 2.004Zm-.775 5.22a.75.75 0 0 1 .783-.717 7 7 0 0 1 6.685 6.69.75.75 0 1 1-1.498.065 5.5 5.5 0 0 0-5.253-5.257.75.75 0 0 1-.717-.782ZM5 12.5a1.5 1.5 0 1 1-3 0 1.5 1.5 0 0 1 3 0Z" clip-rule="evenodd"/></svg></svg>